# xmcd CD database file
# Copyright (C) 1997 Ti Kan
#
# Track frame offsets:
#  150
#  35980
#  82150
#  121179
#  150275
#  183450
#  218082
#  239117
#
# Disc length: 4131 seconds
#
# Revision: 1
# Processed by: cddbd v1.4b41PL1 Copyright (c) Steve Scherf et al.
# Submitted via: CDWizzard Release:4.32
#
DISCID=6d102108
DTITLE=Merl Saunders - Still Having Fun
DYEAR=1900
DGENRE=
TTITLE0=Boogie On Reggae Woman
TTITLE1=I Feel Like Dynamite
TTITLE2=Lonesome Fever
TTITLE3=Sugaree
TTITLE4=My Funny Valentine
TTITLE5=System
TTITLE6=Dance Of The Fireflies
TTITLE7=Fire On The Mountain
EXTD=
EXTT0=
EXTT1=
EXTT2=
EXTT3=
EXTT4=
EXTT5=
EXTT6=
EXTT7=
PLAYORDER=
